# 3ds Max Wavefront OBJ Exporter v0.97b - (c)2007 guruware
# File Created: 09.07.2016 15:58:26

mtllib water.mtl

#
# object Plane001
#

v  -1.0774 -0.0001 4.0000
v  -1.0000 -0.0001 4.0000
v  -1.0000 -0.0001 3.0000
v  -2.0000 -0.0001 3.6642
v  -2.0000 -0.0001 3.0000
v  0.0000 -0.0001 4.0000
v  0.0000 -0.0001 3.0000
v  1.0000 -0.0001 4.0000
v  1.0000 -0.0001 3.0000
v  1.0774 -0.0001 4.0000
v  2.0000 -0.0001 3.0000
v  2.0000 -0.0001 3.6642
v  -3.0000 -0.0001 2.8705
v  -2.8456 -0.0001 3.0000
v  -2.0000 -0.0001 2.0000
v  -3.0000 -0.0001 2.0000
v  -1.0000 -0.0001 2.0000
v  0.0000 -0.0001 2.0000
v  1.0000 -0.0001 2.0000
v  2.0000 -0.0001 2.0000
v  2.8456 -0.0001 3.0000
v  3.0000 -0.0001 2.8705
v  3.0000 -0.0001 2.0000
v  -2.0000 -0.0001 1.0000
v  -3.0000 -0.0001 1.0000
v  -1.0000 -0.0001 1.0000
v  0.0000 -0.0001 1.0000
v  1.0000 -0.0001 1.0000
v  2.0000 -0.0001 1.0000
v  3.0000 -0.0001 1.0000
v  -4.0000 -0.0001 1.0000
v  -3.0000 -0.0001 0.0000
v  -4.0000 -0.0001 0.0000
v  -2.0000 -0.0001 0.0000
v  -1.0000 -0.0001 0.0000
v  0.0000 -0.0001 0.0000
v  1.0000 -0.0001 0.0000
v  2.0000 -0.0001 0.0000
v  3.0000 -0.0001 0.0000
v  4.0000 -0.0001 1.0000
v  4.0000 -0.0001 0.0000
v  4.0146 -0.0001 1.0000
v  4.1909 -0.0001 0.0000
v  -3.0000 -0.0001 -1.0000
v  -4.0000 -0.0001 -1.0000
v  -2.0000 -0.0001 -1.0000
v  -1.0000 -0.0001 -1.0000
v  0.0000 -0.0001 -1.0000
v  1.0000 -0.0001 -1.0000
v  2.0000 -0.0001 -1.0000
v  3.0000 -0.0001 -1.0000
v  4.0000 -0.0001 -1.0000
v  -2.0000 -0.0001 -2.0000
v  -3.0000 -0.0001 -2.0000
v  -1.0000 -0.0001 -2.0000
v  0.0000 -0.0001 -2.0000
v  1.0000 -0.0001 -2.0000
v  2.0000 -0.0001 -2.0000
v  3.0000 -0.0001 -2.0000
v  -1.0000 -0.0001 -3.0000
v  -2.0000 -0.0001 -3.0000
v  0.0000 -0.0001 -3.0000
v  1.0000 -0.0001 -3.0000
v  2.0000 -0.0001 -3.0000
v  0.0000 -0.0001 -4.0000
v  -1.0000 -0.0001 -4.0000
v  1.0000 -0.0001 -4.0000
v  3.6111 -0.0001 2.0000
v  3.9382 -0.0001 1.4334
v  4.0000 -0.0001 1.0829
v  4.0146 -0.0001 -1.0000
v  2.0955 -0.0001 3.6295
v  3.2104 -0.0001 2.6939
v  0.0000 -0.0001 4.1273
v  0.7277 -0.0001 4.1273
v  1.0000 -0.0001 4.0282
v  -1.0000 -0.0001 4.0282
v  -0.7277 -0.0001 4.1273
v  -3.6111 -0.0001 2.0000
v  -3.2104 -0.0001 2.6939
v  -2.0955 -0.0001 3.6295
v  -4.0000 -0.0001 1.0829
v  -3.9382 -0.0001 1.4334
v  -4.0146 -0.0001 1.0000
v  -4.1909 -0.0001 0.0000
v  -4.0146 -0.0001 -1.0000
v  -4.0000 -0.0001 -1.0829
v  -3.6111 -0.0001 -2.0000
v  -3.9382 -0.0001 -1.4334
v  -3.0000 -0.0001 -2.8705
v  -3.2104 -0.0001 -2.6939
v  -2.8456 -0.0001 -3.0000
v  -2.0000 -0.0001 -3.6642
v  -2.0955 -0.0001 -3.6295
v  -1.0774 -0.0001 -4.0000
v  -1.0000 -0.0001 -4.0282
v  0.0000 -0.0001 -4.1273
v  -0.7278 -0.0001 -4.1273
v  1.0000 -0.0001 -4.0282
v  0.7277 -0.0001 -4.1273
v  2.0000 -0.0001 -3.6642
v  1.0774 -0.0001 -4.0000
v  2.8456 -0.0001 -3.0000
v  2.0955 -0.0001 -3.6295
v  3.0000 -0.0001 -2.8705
v  3.6111 -0.0001 -2.0000
v  3.2104 -0.0001 -2.6939
v  4.0000 -0.0001 -1.0829
v  3.9382 -0.0001 -1.4334
# 109 vertices

vn 0.0000 1.0000 -0.0000
# 1 vertex normals

vt 0.3923 0.1000 0.0000
vt 0.4000 0.1000 0.0000
vt 0.4000 0.2000 0.0000
vt 0.3000 0.1336 0.0000
vt 0.3000 0.2000 0.0000
vt 0.5000 0.1000 0.0000
vt 0.5000 0.2000 0.0000
vt 0.6000 0.1000 0.0000
vt 0.6000 0.2000 0.0000
vt 0.6077 0.1000 0.0000
vt 0.7000 0.2000 0.0000
vt 0.7000 0.1336 0.0000
vt 0.2000 0.2130 0.0000
vt 0.2154 0.2000 0.0000
vt 0.3000 0.3000 0.0000
vt 0.2000 0.3000 0.0000
vt 0.4000 0.3000 0.0000
vt 0.5000 0.3000 0.0000
vt 0.6000 0.3000 0.0000
vt 0.7000 0.3000 0.0000
vt 0.7846 0.2000 0.0000
vt 0.8000 0.2130 0.0000
vt 0.8000 0.3000 0.0000
vt 0.3000 0.4000 0.0000
vt 0.2000 0.4000 0.0000
vt 0.4000 0.4000 0.0000
vt 0.5000 0.4000 0.0000
vt 0.6000 0.4000 0.0000
vt 0.7000 0.4000 0.0000
vt 0.8000 0.4000 0.0000
vt 0.1000 0.4000 0.0000
vt 0.2000 0.5000 0.0000
vt 0.1000 0.5000 0.0000
vt 0.3000 0.5000 0.0000
vt 0.4000 0.5000 0.0000
vt 0.5000 0.5000 0.0000
vt 0.6000 0.5000 0.0000
vt 0.7000 0.5000 0.0000
vt 0.8000 0.5000 0.0000
vt 0.9000 0.4000 0.0000
vt 0.9000 0.5000 0.0000
vt 0.9015 0.4000 0.0000
vt 0.9191 0.5000 0.0000
vt 0.2000 0.6000 0.0000
vt 0.1000 0.6000 0.0000
vt 0.3000 0.6000 0.0000
vt 0.4000 0.6000 0.0000
vt 0.5000 0.6000 0.0000
vt 0.6000 0.6000 0.0000
vt 0.7000 0.6000 0.0000
vt 0.8000 0.6000 0.0000
vt 0.9000 0.6000 0.0000
vt 0.3000 0.7000 0.0000
vt 0.2000 0.7000 0.0000
vt 0.4000 0.7000 0.0000
vt 0.5000 0.7000 0.0000
vt 0.6000 0.7000 0.0000
vt 0.7000 0.7000 0.0000
vt 0.8000 0.7000 0.0000
vt 0.4000 0.8000 0.0000
vt 0.3000 0.8000 0.0000
vt 0.5000 0.8000 0.0000
vt 0.6000 0.8000 0.0000
vt 0.7000 0.8000 0.0000
vt 0.5000 0.9000 0.0000
vt 0.4000 0.9000 0.0000
vt 0.6000 0.9000 0.0000
vt 0.8611 0.3000 0.0000
vt 0.8938 0.3567 0.0000
vt 0.9000 0.3917 0.0000
vt 0.9015 0.6000 0.0000
vt 0.7095 0.1371 0.0000
vt 0.8210 0.2306 0.0000
vt 0.5000 0.0873 0.0000
vt 0.5728 0.0873 0.0000
vt 0.6000 0.0972 0.0000
vt 0.4000 0.0972 0.0000
vt 0.4272 0.0873 0.0000
vt 0.1389 0.3000 0.0000
vt 0.1790 0.2306 0.0000
vt 0.2905 0.1371 0.0000
vt 0.1000 0.3917 0.0000
vt 0.1062 0.3567 0.0000
vt 0.0985 0.4000 0.0000
vt 0.0809 0.5000 0.0000
vt 0.0985 0.6000 0.0000
vt 0.1000 0.6083 0.0000
vt 0.1389 0.7000 0.0000
vt 0.1062 0.6433 0.0000
vt 0.2000 0.7870 0.0000
vt 0.1790 0.7694 0.0000
vt 0.2154 0.8000 0.0000
vt 0.3000 0.8664 0.0000
vt 0.2905 0.8629 0.0000
vt 0.3923 0.9000 0.0000
vt 0.4000 0.9028 0.0000
vt 0.5000 0.9127 0.0000
vt 0.4272 0.9127 0.0000
vt 0.6000 0.9028 0.0000
vt 0.5728 0.9127 0.0000
vt 0.7000 0.8664 0.0000
vt 0.6077 0.9000 0.0000
vt 0.7846 0.8000 0.0000
vt 0.7095 0.8629 0.0000
vt 0.8000 0.7870 0.0000
vt 0.8611 0.7000 0.0000
vt 0.8210 0.7694 0.0000
vt 0.9000 0.6083 0.0000
vt 0.8938 0.6433 0.0000
# 109 texture coords

g Plane001
usemtl wire_027177148
s 1
f 1/1/1 2/2/1 3/3/1 4/4/1 
f 5/5/1 4/4/1 3/3/1 
f 2/2/1 6/6/1 7/7/1 3/3/1 
f 6/6/1 8/8/1 9/9/1 7/7/1 
f 9/9/1 8/8/1 10/10/1 11/11/1 
f 10/10/1 12/12/1 11/11/1 
f 13/13/1 14/14/1 5/5/1 15/15/1 
f 16/16/1 13/13/1 15/15/1 
f 5/5/1 3/3/1 17/17/1 15/15/1 
f 3/3/1 7/7/1 18/18/1 17/17/1 
f 7/7/1 9/9/1 19/19/1 18/18/1 
f 9/9/1 11/11/1 20/20/1 19/19/1 
f 21/21/1 22/22/1 23/23/1 11/11/1 
f 20/20/1 11/11/1 23/23/1 
f 16/16/1 15/15/1 24/24/1 25/25/1 
f 15/15/1 17/17/1 26/26/1 24/24/1 
f 17/17/1 18/18/1 27/27/1 26/26/1 
f 18/18/1 19/19/1 28/28/1 27/27/1 
f 19/19/1 20/20/1 29/29/1 28/28/1 
f 20/20/1 23/23/1 30/30/1 29/29/1 
f 31/31/1 25/25/1 32/32/1 33/33/1 
f 25/25/1 24/24/1 34/34/1 32/32/1 
f 24/24/1 26/26/1 35/35/1 34/34/1 
f 26/26/1 27/27/1 36/36/1 35/35/1 
f 27/27/1 28/28/1 37/37/1 36/36/1 
f 28/28/1 29/29/1 38/38/1 37/37/1 
f 29/29/1 30/30/1 39/39/1 38/38/1 
f 30/30/1 40/40/1 41/41/1 39/39/1 
f 42/42/1 43/43/1 41/41/1 40/40/1 
f 33/33/1 32/32/1 44/44/1 45/45/1 
f 32/32/1 34/34/1 46/46/1 44/44/1 
f 34/34/1 35/35/1 47/47/1 46/46/1 
f 35/35/1 36/36/1 48/48/1 47/47/1 
f 36/36/1 37/37/1 49/49/1 48/48/1 
f 37/37/1 38/38/1 50/50/1 49/49/1 
f 38/38/1 39/39/1 51/51/1 50/50/1 
f 39/39/1 41/41/1 52/52/1 51/51/1 
f 44/44/1 46/46/1 53/53/1 54/54/1 
f 46/46/1 47/47/1 55/55/1 53/53/1 
f 47/47/1 48/48/1 56/56/1 55/55/1 
f 48/48/1 49/49/1 57/57/1 56/56/1 
f 49/49/1 50/50/1 58/58/1 57/57/1 
f 50/50/1 51/51/1 59/59/1 58/58/1 
f 53/53/1 55/55/1 60/60/1 61/61/1 
f 55/55/1 56/56/1 62/62/1 60/60/1 
f 56/56/1 57/57/1 63/63/1 62/62/1 
f 57/57/1 58/58/1 64/64/1 63/63/1 
f 60/60/1 62/62/1 65/65/1 66/66/1 
f 62/62/1 63/63/1 67/67/1 65/65/1 
f 23/23/1 68/68/1 69/69/1 30/30/1 
f 40/40/1 30/30/1 69/69/1 70/70/1 
f 42/42/1 40/40/1 70/70/1 
f 43/43/1 71/71/1 52/52/1 41/41/1 
f 11/11/1 12/12/1 72/72/1 21/21/1 
f 73/73/1 68/68/1 23/23/1 22/22/1 
f 6/6/1 74/74/1 75/75/1 8/8/1 
f 76/76/1 8/8/1 75/75/1 
f 10/10/1 8/8/1 76/76/1 
f 2/2/1 77/77/1 78/78/1 6/6/1 
f 74/74/1 6/6/1 78/78/1 
f 77/77/1 2/2/1 1/1/1 
f 16/16/1 79/79/1 80/80/1 13/13/1 
f 81/81/1 4/4/1 5/5/1 14/14/1 
f 31/31/1 82/82/1 83/83/1 25/25/1 
f 16/16/1 25/25/1 83/83/1 79/79/1 
f 82/82/1 31/31/1 84/84/1 
f 84/84/1 31/31/1 33/33/1 85/85/1 
f 86/86/1 45/45/1 87/87/1 
f 85/85/1 33/33/1 45/45/1 86/86/1 
f 54/54/1 88/88/1 89/89/1 44/44/1 
f 45/45/1 44/44/1 89/89/1 87/87/1 
f 54/54/1 90/90/1 91/91/1 88/88/1 
f 53/53/1 61/61/1 92/92/1 54/54/1 
f 90/90/1 54/54/1 92/92/1 
f 61/61/1 93/93/1 94/94/1 92/92/1 
f 95/95/1 66/66/1 96/96/1 
f 60/60/1 66/66/1 95/95/1 61/61/1 
f 93/93/1 61/61/1 95/95/1 
f 65/65/1 97/97/1 98/98/1 66/66/1 
f 96/96/1 66/66/1 98/98/1 
f 67/67/1 99/99/1 100/100/1 65/65/1 
f 97/97/1 65/65/1 100/100/1 
f 63/63/1 64/64/1 101/101/1 67/67/1 
f 102/102/1 67/67/1 101/101/1 
f 99/99/1 67/67/1 102/102/1 
f 64/64/1 103/103/1 104/104/1 101/101/1 
f 58/58/1 59/59/1 105/105/1 64/64/1 
f 103/103/1 64/64/1 105/105/1 
f 59/59/1 106/106/1 107/107/1 105/105/1 
f 52/52/1 108/108/1 109/109/1 51/51/1 
f 59/59/1 51/51/1 109/109/1 106/106/1 
f 108/108/1 52/52/1 71/71/1 
# 72 polygons - 20 triangles

